# xmcd
#
# Track frame offsets: 
#        150
#        13692
#        34063
#        45507
#        67993
#        87261
#        101800
#        130104
#        156377
#        183053
#        201206
#        209677
#        233272
#        254903
#        275021
#        297860
#        322442
#
# Disc length: 4440 seconds
#
# Revision: 0
# Processed by: cddbd v1.5.2PL0 Copyright (c) Steve Scherf et al.
# Submitted via: ExactAudioCopy v0.99pb5
#
DISCID=fe115611
DTITLE=Various Artists   - Milky Disco 3 - To The Stars
DYEAR=2010
DGENRE=Electronic
TTITLE0=Telespazio  - Closer Space
TTITLE1=Jonny Nash - Metabolic
TTITLE2=In Flagranti  - Preceding Stairs
TTITLE3=Soft Rocks - Bobby's Revenge
TTITLE4=Ndv  - Touchy Philly
TTITLE5=Coyote  - Cactus
TTITLE6=Black Devil Disco Club  - For Hoped (Dub)
TTITLE7=Ichisan  - Space Patrol
TTITLE8=Weirdo Police - Missed Wish
TTITLE9=Hatchback  - Comets (the Beat Broker's Colors of the Club mix)
TTITLE10=Ghostape  - I Feel Your Soul
TTITLE11=Leo Zero - Carbon Cave
TTITLE12=Cos\\Mes  - Iron Deck
TTITLE13=The Flying Sapphire  - Behemoth (Maelstrom Acid Dub)
TTITLE14=Moscow  - Deep Heat
TTITLE15=Black Mustang  - Blackout Part 2
TTITLE16=Oneohtrix Point Never  - Japan Display
EXTD=
EXTT0=
EXTT1=
EXTT2=
EXTT3=
EXTT4=
EXTT5=
EXTT6=
EXTT7=
EXTT8=
EXTT9=
EXTT10=
EXTT11=
EXTT12=
EXTT13=
EXTT14=
EXTT15=
EXTT16=
PLAYORDER=
